<?xml version="1.0" encoding="UTF-8"?>
<svg version="1.1" xmlns="http://www.w3.org/2000/svg" width="512" height="512">
<path d="M0 0 C6.01374813 2.3182999 11.49193455 5.69240858 17 9 C18.31519401 9.76770552 19.63157286 10.53338541 20.94921875 11.296875 C23.70441159 12.90041017 26.4485358 14.52125447 29.1875 16.15234375 C34.90716261 19.54991074 40.67266081 22.86735517 46.4375 26.1875 C47.54407959 26.82510254 48.65065918 27.46270508 49.79077148 28.11962891 C52.0620547 29.42810508 54.3334587 30.73637161 56.60498047 32.04443359 C62.0716998 35.19332054 67.53574887 38.34683264 73 41.5 C75.16665311 42.7500235 77.33331979 44.00002347 79.5 45.25 C101.16666667 57.75 122.83333333 70.25 144.5 82.75 C146.1094751 83.67848755 146.1094751 83.67848755 147.75146484 84.62573242 C149.91337884 85.87306548 152.07516317 87.1206233 154.23681641 88.3684082 C159.72514585 91.53608832 165.21582533 94.69956761 170.7109375 97.85546875 C177.14946155 101.55514408 183.5793455 105.26939778 190 109 C190.98983887 109.57476074 191.97967773 110.14952148 192.99951172 110.74169922 C195.77617154 112.36005519 198.54558503 113.99005145 201.3125 115.625 C202.12444824 116.09768311 202.93639648 116.57036621 203.77294922 117.05737305 C210.2845454 120.93571602 215.10837259 124.77534249 218 132 C218.42732652 135.3677538 218.40500702 138.70503721 218.38095093 142.09619141 C218.3856309 143.10980555 218.39031087 144.12341969 218.39513266 145.1677494 C218.40709382 148.56248706 218.39762079 151.95682188 218.38818359 155.3515625 C218.39224878 157.78603348 218.39759036 160.22050262 218.40411377 162.65496826 C218.41637807 168.57981878 218.41457627 174.50456476 218.40587585 180.42941236 C218.39909715 185.24520776 218.39818338 190.06097122 218.4014473 194.87677002 C218.401907 195.56251433 218.40236669 196.24825864 218.40284032 196.95478308 C218.40379951 198.3479155 218.40477215 199.74104791 218.4057581 201.13418031 C218.4143101 214.19365117 218.40448086 227.25305882 218.388357 240.31251931 C218.37495398 251.51501848 218.37728212 262.71742439 218.39111328 273.91992188 C218.40717247 286.93306959 218.41348614 299.94616192 218.40427649 312.95931816 C218.40332086 314.34728876 218.40237774 315.73525937 218.4014473 317.12322998 C218.40098447 317.80611513 218.40052164 318.48900028 218.40004479 319.19257891 C218.39745592 324.0018736 218.40182369 328.81113312 218.40888596 333.62042236 C218.41818455 340.09485043 218.41155205 346.5691438 218.39420319 353.04355621 C218.39023294 355.42117266 218.39138155 357.79880392 218.39799118 360.17641449 C218.4061752 363.4190802 218.39592252 366.6611791 218.38095093 369.90380859 C218.38764309 370.847194 218.39433526 371.79057941 218.40123022 372.76255226 C218.34214326 379.34951505 217.1373019 383.55425895 212.69921875 388.6328125 C209.86395461 391.11931043 207.0691662 392.97368726 203.8125 394.875 C203.17868408 395.24737793 202.54486816 395.61975586 201.8918457 396.00341797 C199.59995038 397.34508013 197.30038943 398.67295557 195 400 C194.06897461 400.53947266 193.13794922 401.07894531 192.17871094 401.63476562 C185.60224063 405.44543066 179.0163145 409.23948973 172.42724609 413.02832031 C166.94844203 416.18025232 161.47438887 419.34040797 156 422.5 C153.83335774 423.7500423 151.66669103 425.00004224 149.5 426.25 C148.4275 426.86875 147.355 427.4875 146.25 428.125 C117 445 87.75 461.875 58.5 478.75 C57.42645264 479.36939453 56.35290527 479.98878906 55.24682617 480.62695312 C53.09087995 481.87068719 50.93479382 483.11417875 48.77856445 484.35742188 C43.78074797 487.23945447 38.78419341 490.12358251 33.79293823 493.01696777 C32.05046706 494.02690398 30.30752899 495.03602975 28.56445312 496.04492188 C26.39686469 497.29984149 24.23012265 498.55622486 22.06445312 499.81445312 C19.05113252 501.55777694 16.02862451 503.28340977 13 505 C11.86804199 505.64582031 10.73608398 506.29164063 9.56982422 506.95703125 C7.86656982 507.90642578 7.86656982 507.90642578 6.12890625 508.875 C5.10482666 509.44992187 4.08074707 510.02484375 3.02563477 510.6171875 C-2.45172195 513.12051587 -7.17124567 513.34009307 -13 512 C-19.01374813 509.6817001 -24.49193455 506.30759142 -30 503 C-31.31519401 502.23229448 -32.63157286 501.46661459 -33.94921875 500.703125 C-36.70441159 499.09958983 -39.4485358 497.47874553 -42.1875 495.84765625 C-47.90716261 492.45008926 -53.67266081 489.13264483 -59.4375 485.8125 C-60.54407959 485.17489746 -61.65065918 484.53729492 -62.79077148 483.88037109 C-65.0620547 482.57189492 -67.3334587 481.26362839 -69.60498047 479.95556641 C-75.0716998 476.80667946 -80.53574887 473.65316736 -86 470.5 C-88.16665311 469.2499765 -90.33331979 467.99997653 -92.5 466.75 C-114.16666667 454.25 -135.83333333 441.75 -157.5 429.25 C-158.5729834 428.6310083 -159.6459668 428.0120166 -160.75146484 427.37426758 C-162.91337884 426.12693452 -165.07516317 424.8793767 -167.23681641 423.6315918 C-172.72514585 420.46391168 -178.21582533 417.30043239 -183.7109375 414.14453125 C-190.14946155 410.44485592 -196.5793455 406.73060222 -203 403 C-203.98983887 402.42523926 -204.97967773 401.85047852 -205.99951172 401.25830078 C-208.77617154 399.63994481 -211.54558503 398.00994855 -214.3125 396.375 C-215.12444824 395.90231689 -215.93639648 395.42963379 -216.77294922 394.94262695 C-223.2845454 391.06428398 -228.10837259 387.22465751 -231 380 C-231.42732652 376.6322462 -231.40500702 373.29496279 -231.38095093 369.90380859 C-231.3856309 368.89019445 -231.39031087 367.87658031 -231.39513266 366.8322506 C-231.40709382 363.43751294 -231.39762079 360.04317812 -231.38818359 356.6484375 C-231.39224878 354.21396652 -231.39759036 351.77949738 -231.40411377 349.34503174 C-231.41637807 343.42018122 -231.41457627 337.49543524 -231.40587585 331.57058764 C-231.39909715 326.75479224 -231.39818338 321.93902878 -231.4014473 317.12322998 C-231.401907 316.43748567 -231.40236669 315.75174136 -231.40284032 315.04521692 C-231.40379951 313.6520845 -231.40477215 312.25895209 -231.4057581 310.86581969 C-231.4143101 297.80634883 -231.40448086 284.74694118 -231.388357 271.68748069 C-231.37495398 260.48498152 -231.37728212 249.28257561 -231.39111328 238.08007812 C-231.40717247 225.06693041 -231.41348614 212.05383808 -231.40427649 199.04068184 C-231.40332086 197.65271124 -231.40237774 196.26474063 -231.4014473 194.87677002 C-231.40098447 194.19388487 -231.40052164 193.51099972 -231.40004479 192.80742109 C-231.39745592 187.9981264 -231.40182369 183.18886688 -231.40888596 178.37957764 C-231.41818455 171.90514957 -231.41155205 165.4308562 -231.39420319 158.95644379 C-231.39023294 156.57882734 -231.39138155 154.20119608 -231.39799118 151.82358551 C-231.4061752 148.5809198 -231.39592252 145.3388209 -231.38095093 142.09619141 C-231.38764309 141.152806 -231.39433526 140.20942059 -231.40123022 139.23744774 C-231.34214326 132.65048495 -230.1373019 128.44574105 -225.69921875 123.3671875 C-222.86395461 120.88068957 -220.0691662 119.02631274 -216.8125 117.125 C-216.17868408 116.75262207 -215.54486816 116.38024414 -214.8918457 115.99658203 C-212.59995038 114.65491987 -210.30038943 113.32704443 -208 112 C-206.04947917 110.86979167 -204.09895833 109.73958333 -202.1484375 108.609375 C-196.57978103 105.38796575 -191.00427385 102.17856904 -185.42724609 98.97167969 C-179.94844203 95.81974768 -174.47438887 92.65959203 -169 89.5 C-166.83335774 88.2499577 -164.66669103 86.99995776 -162.5 85.75 C-161.4275 85.13125 -160.355 84.5125 -159.25 83.875 C-130 67 -100.75 50.125 -71.5 33.25 C-70.42645264 32.63060547 -69.35290527 32.01121094 -68.24682617 31.37304688 C-66.09087995 30.12931281 -63.93479382 28.88582125 -61.77856445 27.64257812 C-56.78074797 24.76054553 -51.78419341 21.87641749 -46.79293823 18.98303223 C-45.05046706 17.97309602 -43.30752899 16.96397025 -41.56445312 15.95507812 C-39.39686469 14.70015851 -37.23012265 13.44377514 -35.06445312 12.18554688 C-32.05113252 10.44222306 -29.02862451 8.71659023 -26 7 C-24.86804199 6.35417969 -23.73608398 5.70835937 -22.56982422 5.04296875 C-20.86656982 4.09357422 -20.86656982 4.09357422 -19.12890625 3.125 C-17.59278687 2.26261719 -17.59278687 2.26261719 -16.02563477 1.3828125 C-10.54827805 -1.12051587 -5.82875433 -1.34009307 0 0 Z M-12.62890625 46.53515625 C-13.56782715 47.08937256 -14.50674805 47.64358887 -15.47412109 48.21459961 C-16.49328613 48.82440674 -17.51245117 49.43421387 -18.5625 50.0625 C-20.75350243 51.35745433 -22.94492277 52.65170178 -25.13671875 53.9453125 C-26.27157715 54.61723633 -27.40643555 55.28916016 -28.57568359 55.98144531 C-33.98701981 59.17130186 -39.43040352 62.30486218 -44.875 65.4375 C-47.05993291 66.69655024 -49.24482853 67.9556652 -51.4296875 69.21484375 C-52.51475586 69.83987793 -53.59982422 70.46491211 -54.71777344 71.10888672 C-60.14659942 74.23680148 -65.57319281 77.36858448 -71 80.5 C-73.16665583 81.75001879 -75.3333225 83.00001878 -77.5 84.25 C-78.5725 84.86875 -79.645 85.4875 -80.75 86.125 C-142.5 121.75 -142.5 121.75 -145.75561523 123.62817383 C-147.90364046 124.86746267 -150.05159075 126.10688141 -152.19946289 127.34643555 C-157.28655549 130.28202567 -162.37441847 133.21625672 -167.4649353 136.14590454 C-169.87543748 137.53328095 -172.28551376 138.92139624 -174.69555664 140.30957031 C-176.40143968 141.29173815 -178.10793986 142.27283385 -179.81445312 143.25390625 C-181.35842773 144.14335937 -181.35842773 144.14335937 -182.93359375 145.05078125 C-184.2956897 145.83449097 -184.2956897 145.83449097 -185.68530273 146.6340332 C-187.49126201 147.69977966 -189.25521129 148.83680752 -191 150 C-191.34710132 152.79941686 -191.49578742 155.38662172 -191.52226257 158.19464111 C-191.54175943 159.05218514 -191.56125628 159.90972917 -191.58134395 160.79325938 C-191.64277131 163.68402835 -191.68225542 166.57467003 -191.72143555 169.46582031 C-191.75985866 171.53206153 -191.79926484 173.59828467 -191.83958435 175.66448975 C-192.18788018 194.56152335 -192.35732107 213.46334899 -192.48988628 232.36299515 C-192.58951048 246.33180849 -192.76789951 260.29476548 -193.05241936 274.26106572 C-193.24573873 284.0836691 -193.34654334 293.90468278 -193.38013488 303.72911525 C-193.40278118 309.59558507 -193.46590354 315.45499268 -193.62921715 321.31937408 C-195.63685639 344.3691575 -195.63685639 344.3691575 -188.63986206 365.30589485 C-183.04719505 370.32430823 -176.93199711 373.00316628 -169.78645897 375.12214088 C-166.06323302 376.29512347 -163.16362055 378.02606191 -159.8828125 380.12109375 C-157.96389348 381.22717308 -156.04463128 382.33265727 -154.125 383.4375 C-151.94009462 384.69659802 -149.75519908 385.95571311 -147.5703125 387.21484375 C-146.48524414 387.83987793 -145.40017578 388.46491211 -144.28222656 389.10888672 C-138.85340058 392.23680148 -133.42680719 395.36858448 -128 398.5 C-125.83334417 399.75001879 -123.6666775 401.00001878 -121.5 402.25 C-99.83333333 414.75 -78.16666667 427.25 -56.5 439.75 C-55.42564697 440.36979736 -54.35129395 440.98959473 -53.24438477 441.62817383 C-51.09635954 442.86746267 -48.94840925 444.10688141 -46.80053711 445.34643555 C-41.71344451 448.28202567 -36.62558153 451.21625672 -31.5350647 454.14590454 C-29.12456252 455.53328095 -26.71448624 456.92139624 -24.30444336 458.30957031 C-22.59856032 459.29173815 -20.89206014 460.27283385 -19.18554688 461.25390625 C-18.15623047 461.846875 -17.12691406 462.43984375 -16.06640625 463.05078125 C-14.7043103 463.83449097 -14.7043103 463.83449097 -13.31469727 464.6340332 C-11.50873799 465.69977966 -9.74478871 466.83680752 -8 468 C-3.65103239 467.41945487 -0.01102448 464.94145978 3.75 462.8125 C4.53584473 462.37180176 5.32168945 461.93110352 6.13134766 461.47705078 C13.60478958 457.26553792 21.00816444 452.9340331 28.40917969 448.59692383 C36.24227987 444.01042138 44.11290931 439.49266028 52 435 C60.69418741 430.04651795 69.36503119 425.05630527 78 420 C87.22800529 414.5964354 96.4999467 409.27347639 105.79101562 403.97949219 C114.85646076 398.81268384 123.88343858 393.58334074 132.88671875 388.30883789 C138.38713191 385.09184892 143.9024472 381.90299113 149.4375 378.74609375 C150.06769043 378.3866568 150.69788086 378.02721985 151.34716797 377.65689087 C154.41724723 375.90692797 157.48893002 374.1598397 160.5625 372.41601562 C161.67625 371.78244141 162.79 371.14886719 163.9375 370.49609375 C164.91589844 369.94107178 165.89429688 369.3860498 166.90234375 368.81420898 C168.43568359 367.91617554 168.43568359 367.91617554 170 367 C170.66429205 366.67985284 171.3285841 366.35970569 172.01300621 366.0298571 C176.19268833 363.90143599 176.19268833 363.90143599 178.76349258 360.16568387 C179.08188692 357.89579583 179.14337828 355.73687021 179.12353516 353.44459534 C179.14730413 352.58448803 179.17107311 351.72438073 179.19556236 350.83820957 C179.26493745 347.95604304 179.27710738 345.07653841 179.2890625 342.19360352 C179.32609978 340.12688031 179.36629876 338.0602117 179.40942383 335.99360657 C179.5143572 330.37746009 179.56596322 324.76207817 179.60150909 319.14510465 C179.62497473 315.63268811 179.65781693 312.12047941 179.69354248 308.60816765 C179.80294803 297.60908477 179.88026804 286.61047829 179.91115761 275.61088902 C179.9469659 262.93054884 180.0871146 250.25712532 180.31916237 237.57888848 C180.492451 227.76874178 180.57280941 217.96053373 180.58348656 208.14887375 C180.59185258 202.29285385 180.63860809 196.44333215 180.78204346 190.58893013 C182.69386441 167.57648945 182.69386441 167.57648945 175.6321373 146.69874001 C170.03745916 141.68837596 163.92422278 139.00404998 156.78362656 136.87955856 C153.06355565 135.70410627 150.16222867 133.97211123 146.8828125 131.87890625 C144.96389348 130.77282692 143.04463128 129.66734273 141.125 128.5625 C138.94009462 127.30340198 136.75519908 126.04428689 134.5703125 124.78515625 C132.94270996 123.84760498 132.94270996 123.84760498 131.28222656 122.89111328 C125.85340058 119.76319852 120.42680719 116.63141552 115 113.5 C112.83334417 112.24998121 110.6666775 110.99998122 108.5 109.75 C86.83333333 97.25 65.16666667 84.75 43.5 72.25 C42.42564697 71.63020264 41.35129395 71.01040527 40.24438477 70.37182617 C38.09635954 69.13253733 35.94840925 67.89311859 33.80053711 66.65356445 C28.71344451 63.71797433 23.62558153 60.78374328 18.5350647 57.85409546 C16.12456252 56.46671905 13.71448624 55.07860376 11.30444336 53.69042969 C9.59856032 52.70826185 7.89206014 51.72716615 6.18554688 50.74609375 C5.15623047 50.153125 4.12691406 49.56015625 3.06640625 48.94921875 C2.15834229 48.42674561 1.25027832 47.90427246 0.31469727 47.3659668 C-1.49126201 46.30022034 -3.25521129 45.16319248 -5 44 C-8.49146209 44 -9.66237751 44.76788104 -12.62890625 46.53515625 Z " fill="#B5ACFD" transform="translate(263,0)"/>
<path d="M0 0 C4.71430351 2.78349729 7.58687971 6.23792698 9.875 11.25 C12.70404474 24.10929425 5.56217812 34.67791881 -0.03857422 45.88354492 C-0.69967972 47.21339349 -1.36046783 48.54339989 -2.02096558 49.87355042 C-3.80226355 53.4579279 -5.58869171 57.03972323 -7.37666464 60.62077498 C-8.49583153 62.86276874 -9.61396141 65.10527663 -10.7317543 67.3479557 C-14.63767865 75.18423221 -18.54812637 83.01823388 -22.46240234 90.8503418 C-26.10187279 98.13292316 -29.73078598 105.42069914 -33.35497653 112.71089476 C-36.47667161 118.98902469 -39.6060896 125.26326532 -42.74140942 131.53460199 C-44.60972307 135.27202016 -46.47485707 139.01094218 -48.33205795 142.75389671 C-50.07811511 146.27225778 -51.83376759 149.7856642 -53.59672928 153.29558372 C-54.23951089 154.57933837 -54.87892048 155.86478822 -55.51457214 157.15208817 C-59.35979257 164.93329581 -62.94454046 171.97788425 -70 177.3125 C-76.08951818 179.19471471 -82.87190404 179.73947216 -88.91796875 177.42578125 C-93.89693373 174.46455818 -97.31818422 170.8934605 -99.6875 165.5625 C-102.70588568 152.73436085 -95.42219136 142.04209664 -89.83642578 130.86645508 C-89.17532028 129.53660651 -88.51453217 128.20660011 -87.85403442 126.87644958 C-86.07273645 123.2920721 -84.28630829 119.71027677 -82.49833536 116.12922502 C-81.37916847 113.88723126 -80.26103859 111.64472337 -79.1432457 109.4020443 C-75.23732135 101.56576779 -71.32687363 93.73176612 -67.41259766 85.8996582 C-63.77312721 78.61707684 -60.14421402 71.32930086 -56.52002347 64.03910524 C-53.39832839 57.76097531 -50.2689104 51.48673468 -47.13359058 45.21539801 C-45.26527693 41.47797984 -43.40014293 37.73905782 -41.54294205 33.99610329 C-39.79688489 30.47774222 -38.04123241 26.9643358 -36.27827072 23.45441628 C-35.63548911 22.17066163 -34.99607952 20.88521178 -34.36042786 19.59791183 C-30.5142512 11.81476914 -26.94087465 4.69891939 -19.8125 -0.5625 C-13.34142345 -2.59969077 -6.26986272 -2.84344818 0 0 Z " fill="#B4ACFD" transform="translate(301.4375,167.625)"/>
<path d="M0 0 C5.62125168 3.61924682 10.13365349 8.48791057 14.79168701 13.23605347 C15.91029056 14.35891744 17.02986684 15.48081313 18.15036011 16.60179138 C20.48259667 18.94015682 22.8063904 21.28647863 25.12371826 23.63961792 C28.0839059 26.64520564 31.05925731 29.63519275 34.04037285 32.62000942 C36.34722676 34.93130455 38.64859418 37.24799602 40.94809341 39.56660652 C42.04341605 40.67076092 43.13978219 41.77388125 44.23723984 42.87591362 C45.77081761 44.41860062 47.29753676 45.96776467 48.82244873 47.51901245 C50.12289627 48.83541969 50.12289627 48.83541969 51.44961548 50.17842102 C56.60097693 55.93077799 59.38882003 61.09081158 59.79949951 68.80245972 C59.23228865 74.89052299 56.92632069 79.00276023 52.81097412 83.44967651 C52.00481659 84.32175751 51.19865906 85.1938385 50.36807251 86.09234619 C43.1771794 93.67949154 35.81358268 101.09565751 28.44378662 108.50827026 C26.38396487 110.58148339 24.33168827 112.66175416 22.2855835 114.74850464 C19.78364524 117.30008065 17.26935272 119.8388581 14.74601555 122.36926842 C13.34326514 123.78185217 11.95272311 125.20652659 10.56257629 126.6315155 C4.1764617 132.99673692 -2.48714304 138.70602896 -11.82550049 139.36495972 C-18.34308387 138.92815519 -23.20379609 136.20140326 -27.57550049 131.42745972 C-31.2557009 126.71720322 -32.76388262 122.03365512 -32.57273865 115.98846436 C-31.1040586 107.36349857 -25.11122706 101.01367272 -19.05596924 95.16964722 C-18.2861824 94.40693512 -17.51639557 93.64422302 -16.72328186 92.85839844 C-14.28978646 90.45263276 -11.83940666 88.06495811 -9.38800049 85.67745972 C-7.72343557 84.03800502 -6.06001242 82.39739022 -4.39776611 80.75558472 C-0.34510677 76.7577102 3.72152051 72.77449534 7.79949951 68.80245972 C6.45628593 65.79871262 4.98458391 63.75847028 2.62249756 61.47775269 C1.97810226 60.84964691 1.33370697 60.22154114 0.66978455 59.57440186 C-0.02604233 58.90458282 -0.7218692 58.23476379 -1.43878174 57.54464722 C-2.91383043 56.09978307 -4.3884253 54.65445551 -5.86260986 53.20870972 C-8.18117452 50.94569273 -10.50335241 48.68677594 -12.83404541 46.43624878 C-15.08880078 44.25467638 -17.32706137 42.05718723 -19.56378174 39.85714722 C-20.25353592 39.19947357 -20.9432901 38.54179993 -21.65394592 37.86419678 C-27.13933788 32.43612958 -32.33970775 25.69165148 -32.70050049 17.67745972 C-31.67072713 9.69671618 -29.5568356 5.29870493 -23.17315674 0.21261597 C-15.58333191 -5.21298159 -7.92535166 -4.14271031 0 0 Z " fill="#D095FC" transform="translate(363.20050048828125,188.19754028320313)"/>
<path d="M0 0 C5.20416673 2.93967901 8.66869116 6.99390838 11.1875 12.375 C12.94138949 20.96905852 11.33643381 26.05291816 6.8125 33.4375 C4.30662118 36.54355352 1.53735112 39.301026 -1.33203125 42.0703125 C-2.10181808 42.8330246 -2.87160492 43.59573669 -3.66471863 44.38156128 C-6.09821403 46.78732696 -8.54859382 49.17500161 -11 51.5625 C-12.66456492 53.2019547 -14.32798807 54.8425695 -15.99023438 56.484375 C-20.04289372 60.48224952 -24.109521 64.46546437 -28.1875 68.4375 C-26.84428641 71.44124709 -25.3725844 73.48148943 -23.01049805 75.76220703 C-22.36610275 76.39031281 -21.72170746 77.01841858 -21.05778503 77.66555786 C-20.36195816 78.33537689 -19.66613129 79.00519592 -18.94921875 79.6953125 C-17.47417006 81.14017664 -15.99957519 82.58550421 -14.52539062 84.03125 C-12.20682597 86.29426699 -9.88464808 88.55318378 -7.55395508 90.80371094 C-5.29919971 92.98528333 -3.06093912 95.18277249 -0.82421875 97.3828125 C-0.13446457 98.04048615 0.55528961 98.69815979 1.26594543 99.37576294 C6.75133739 104.80383014 11.95170726 111.54830824 12.3125 119.5625 C11.28272664 127.54324354 9.16883511 131.94125478 2.78515625 137.02734375 C-2.31191156 140.67099025 -7.06018156 141.25737209 -13.1875 140.4375 C-22.43096702 137.41206956 -28.7573983 130.58530647 -35.3984375 123.85546875 C-36.53961315 122.71512368 -37.6816067 121.57559658 -38.82437134 120.43684387 C-41.20396503 118.06009253 -43.57463214 115.67488959 -45.93896484 113.28295898 C-48.95633855 110.23144748 -51.99341271 107.20048141 -55.03722191 104.17536449 C-57.39368993 101.82950702 -59.74024869 99.473934 -62.0839119 97.11528969 C-63.19978803 95.994265 -64.31845254 94.87600818 -65.4400444 93.76070213 C-80.0010648 79.25074138 -80.0010648 79.25074138 -80.1875 68.4375 C-79.54403387 62.18824416 -77.1529464 58.02178725 -72.89453125 53.4765625 C-72.42805679 52.97817368 -71.96158234 52.47978485 -71.48097229 51.96629333 C-64.10871475 44.15426981 -56.5549683 36.51124474 -48.98371315 28.89268398 C-46.55118613 26.44492589 -44.12396751 23.99241965 -41.70922852 21.52709961 C-38.88165462 18.64039492 -36.03354715 15.77477125 -33.18359375 12.91015625 C-31.90191566 11.59447411 -31.90191566 11.59447411 -30.59434509 10.25221252 C-22.0730164 1.76033465 -12.14257692 -5.29941687 0 0 Z " fill="#99C2FE" transform="translate(170.1875,186.5625)"/>
</svg>
